<svg width="260" height="28" viewBox="0 0 260 28" fill="none" xmlns="http://www.w3.org/2000/svg">
<path d="M0 15.27C0 21.8966 5.37666 27.2748 12.0015 27.2748V3.26526C5.37666 3.26526 0 8.64339 0 15.27Z" fill="#7000FF"/>
<path d="M13.9217 15.27C13.9217 21.8966 19.2984 27.2748 25.9232 27.2748V3.26526C19.2984 3.26526 13.9217 8.64339 13.9217 15.27Z" fill="#7000FF"/>
<path d="M45.4136 6.29053C47.8139 6.29053 50.5502 7.05883 52.2784 8.88355L49.8301 12.7731C48.822 11.8127 47.2858 11.0924 45.7976 11.0924C43.0613 11.0924 41.6691 13.1572 41.6691 15.2221C41.6691 17.2389 43.0613 19.4958 45.9897 19.4958C47.6699 19.4958 49.4461 18.4874 50.6942 17.4309L52.8065 21.4645C51.1263 23.1932 48.2939 24.2977 45.4136 24.2977C39.2688 24.2977 35.8124 20.024 35.8124 15.2701C35.8604 10.6603 39.2688 6.29053 45.4136 6.29053Z" fill="black"/>
<path d="M54.2467 0H60.0074V7.53898C60.0074 8.40333 59.9594 9.02757 59.9594 9.02757H60.0074C60.9675 7.34691 62.9837 6.29049 65.24 6.29049C68.6964 6.29049 71.4328 7.87512 71.4328 12.725V23.8654H65.6721V13.7815C65.6721 12.1968 65.048 11.5246 63.7518 11.5246C61.2555 11.5246 60.0074 13.4933 60.0074 16.1344V23.8654H54.2467V0V0Z" fill="black"/>
<path d="M83.0983 6.29053C88.523 6.29053 92.8915 9.93997 92.8915 15.3181C92.8915 20.6962 88.571 24.2496 83.1463 24.2496C77.7216 24.2496 73.4011 20.6962 73.4011 15.3181C73.4011 9.93997 77.7217 6.29053 83.0983 6.29053ZM83.1463 19.4477C85.2586 19.4477 87.0348 17.8631 87.0348 15.3181C87.0348 12.7251 85.2106 11.0924 83.1463 11.0924C81.0821 11.0924 79.2578 12.7251 79.2578 15.3181C79.2098 17.9111 81.0341 19.4477 83.1463 19.4477Z" fill="black"/>
<path d="M104.029 6.29053C109.453 6.29053 113.822 9.93997 113.822 15.3181C113.822 20.6962 109.501 24.2496 104.077 24.2496C98.6521 24.2496 94.3316 20.6962 94.3316 15.3181C94.3316 9.93997 98.6521 6.29053 104.029 6.29053ZM104.077 19.4477C106.189 19.4477 107.965 17.8631 107.965 15.3181C107.965 12.7251 106.141 11.0924 104.077 11.0924C102.013 11.0924 100.188 12.7251 100.188 15.3181C100.188 17.9111 101.965 19.4477 104.077 19.4477Z" fill="black"/>
<path d="M117.134 17.9591C118.383 19.0156 120.159 19.6878 121.791 19.6878C122.943 19.6878 123.375 19.3037 123.375 18.7755C123.375 16.9507 115.31 17.3349 115.31 11.7167C115.31 8.16327 118.479 6.29053 122.463 6.29053C124.671 6.29053 126.88 6.86676 128.608 8.25931L126.64 12.2449C125.631 11.4286 123.759 10.8523 122.319 10.8523C121.071 10.8523 120.735 11.2365 120.735 11.6687C120.735 13.4934 128.8 13.0612 128.8 18.6314C128.8 21.8487 126.112 24.2977 121.743 24.2977C119.295 24.2977 116.654 23.4813 114.734 21.7526L117.134 17.9591Z" fill="black"/>
<path d="M139.217 6.29053C144.306 6.29053 147.186 9.84393 147.186 14.5978C147.186 15.2221 147.138 15.7983 147.042 16.4225H136.193C136.625 18.5354 138.353 19.4958 140.177 19.4958C141.857 19.4958 143.538 18.6794 144.93 17.7671L147.09 21.8007C145.218 23.3853 142.386 24.2977 139.745 24.2977C133.6 24.2977 130.288 19.8799 130.288 15.2701C130.288 10.2281 133.696 6.29053 139.217 6.29053ZM141.473 13.1092C141.473 11.7167 140.561 10.5162 139.121 10.5162C137.441 10.5162 136.673 11.7167 136.337 13.1092H141.473V13.1092Z" fill="black"/>
<path d="M166.34 6.29053C168.741 6.29053 171.477 7.05883 173.205 8.88355L170.757 12.7731C169.749 11.8127 168.213 11.0924 166.725 11.0924C163.988 11.0924 162.596 13.1572 162.596 15.2221C162.596 17.2389 163.988 19.4958 166.917 19.4958C168.597 19.4958 170.373 18.4874 171.621 17.4309L173.733 21.4645C172.053 23.1932 169.221 24.2977 166.34 24.2977C160.196 24.2977 156.739 20.024 156.739 15.2701C156.787 10.6603 160.196 6.29053 166.34 6.29053Z" fill="black"/>
<path d="M183.863 6.29053C189.287 6.29053 193.656 9.93997 193.656 15.3181C193.656 20.6962 189.335 24.2496 183.911 24.2496C178.486 24.2496 174.165 20.6962 174.165 15.3181C174.117 9.93997 178.486 6.29053 183.863 6.29053ZM183.911 19.4958C186.023 19.4958 187.799 17.9111 187.799 15.3661C187.799 12.7731 185.975 11.1404 183.911 11.1404C181.798 11.1404 180.022 12.7731 180.022 15.3661C179.974 17.9111 181.798 19.4958 183.911 19.4958Z" fill="black"/>
<path d="M195.576 6.67468H201.337V16.7587C201.337 18.3433 201.961 19.0156 203.161 19.0156C205.609 19.0156 206.809 16.8547 206.809 14.2617V6.67468H212.57V23.8655H207.049V22.3769C207.049 21.8007 207.097 21.3205 207.097 21.3205H207.049C206.137 23.1452 203.977 24.2977 201.673 24.2977C198.264 24.2977 195.576 22.713 195.576 17.8631V6.67468V6.67468Z" fill="black"/>
<path d="M214.97 6.67463H220.491V9.55577C220.491 10.132 220.443 10.6122 220.443 10.6122H220.491C221.211 8.25926 223.42 6.3385 225.964 6.3385C226.204 6.3385 226.444 6.38652 226.636 6.38652V12.0528C226.444 12.0047 225.868 11.9567 225.484 11.9567C222.267 11.9567 220.731 13.9735 220.731 17.1428V23.8174H214.97V6.67463Z" fill="black"/>
<path d="M230.428 17.9591C231.677 19.0156 233.453 19.6878 235.085 19.6878C236.237 19.6878 236.669 19.3037 236.669 18.7755C236.669 16.9507 228.604 17.3349 228.604 11.7167C228.604 8.16327 231.773 6.29053 235.757 6.29053C237.965 6.29053 240.174 6.86676 241.902 8.25931L239.934 12.2449C238.925 11.4286 237.053 10.8523 235.613 10.8523C234.365 10.8523 234.029 11.2365 234.029 11.6687C234.029 13.4934 242.094 13.0612 242.094 18.6314C242.094 21.8487 239.406 24.2977 235.037 24.2977C232.589 24.2977 229.948 23.4813 228.028 21.7526L230.428 17.9591Z" fill="black"/>
<path d="M252.031 6.29053C257.12 6.29053 260 9.84393 260 14.5978C260 15.2221 259.952 15.7983 259.856 16.4225H249.007C249.439 18.5354 251.167 19.4958 252.991 19.4958C254.671 19.4958 256.352 18.6794 257.744 17.7671L259.904 21.8007C258.032 23.3853 255.199 24.2977 252.559 24.2977C246.414 24.2977 243.102 19.8799 243.102 15.2701C243.102 10.2281 246.51 6.29053 252.031 6.29053ZM254.287 13.1092C254.287 11.7167 253.375 10.5162 251.935 10.5162C250.255 10.5162 249.487 11.7167 249.151 13.1092H254.287V13.1092Z" fill="black"/>
</svg>
